<svg width="927" height="1024" viewBox="0 0 927 1024" fill="none" xmlns="http://www.w3.org/2000/svg">
<path d="M668.629 11C672.157 74.2329 668.381 137.913 661.499 200.838C655.866 252.338 642.722 291.282 618.428 336.436C574.463 418.153 538.558 505.934 473.245 573.376C403.398 645.501 310.471 713.659 204.271 706.405C162.845 703.576 114.14 692.713 78.7685 669.294C66.2483 661.005 57.3999 655.006 48.3793 642.366C27.6019 613.254 20.1419 593.506 23.9596 558.354C25.5719 543.508 29.0473 532.473 34.2722 522.134C89.0633 413.712 214.722 404.544 322.357 405.234C354.149 405.438 387.484 407.364 418.48 414.94C459.541 424.977 498.234 447.965 535.711 466.61C596.109 496.659 658.561 524.306 712.84 564.955C752.406 594.584 778.475 634.66 809.392 672.434C827.577 694.653 844.065 717.321 854.744 744.23C863.652 766.679 868.74 791.09 875.423 814.313C884.84 847.037 895.956 883.573 899.097 917.368C902.067 949.315 897.196 981.6 891.966 1013" stroke="white" stroke-opacity="0.1" stroke-width="53" stroke-linecap="round"/>
</svg>
